<svg width="494" height="133" viewBox="0 0 494 133" fill="none" xmlns="http://www.w3.org/2000/svg">
<g filter="url(#filter0_dd_11_74)">
<path d="M14 66.3448C14 37.4356 37.4356 14 66.3448 14H426.942C455.852 14 479.287 37.4356 479.287 66.3448C479.287 95.2541 455.852 118.69 426.943 118.69H66.3449C37.4356 118.69 14 95.2541 14 66.3448Z" fill="#E9F0F7"/>
<path d="M14 66.3448C14 37.4356 37.4356 14 66.3448 14H426.942C455.852 14 479.287 37.4356 479.287 66.3448C479.287 95.2541 455.852 118.69 426.943 118.69H66.3449C37.4356 118.69 14 95.2541 14 66.3448Z" fill="url(#paint0_linear_11_74)" fill-opacity="0.3"/>
<path d="M14.5 66.3448C14.5 37.7117 37.7117 14.5 66.3448 14.5H426.942C455.576 14.5 478.787 37.7117 478.787 66.3448C478.787 94.9779 455.576 118.19 426.943 118.19H66.3449C37.7118 118.19 14.5 94.9779 14.5 66.3448Z" stroke="url(#paint1_linear_11_74)"/>
</g>
<defs>
<filter id="filter0_dd_11_74" x="0" y="0" width="493.287" height="132.69" filterUnits="userSpaceOnUse" color-interpolation-filters="sRGB">
<feFlood flood-opacity="0" result="BackgroundImageFix"/>
<feColorMatrix in="SourceAlpha" type="matrix" values="0 0 0 0 0 0 0 0 0 0 0 0 0 0 0 0 0 0 127 0" result="hardAlpha"/>
<feOffset dx="4" dy="4"/>
<feGaussianBlur stdDeviation="5"/>
<feColorMatrix type="matrix" values="0 0 0 0 0.5402 0 0 0 0 0.6068 0 0 0 0 0.74 0 0 0 0.4 0"/>
<feBlend mode="normal" in2="BackgroundImageFix" result="effect1_dropShadow_11_74"/>
<feColorMatrix in="SourceAlpha" type="matrix" values="0 0 0 0 0 0 0 0 0 0 0 0 0 0 0 0 0 0 127 0" result="hardAlpha"/>
<feOffset dx="-4" dy="-4"/>
<feGaussianBlur stdDeviation="5"/>
<feColorMatrix type="matrix" values="0 0 0 0 1 0 0 0 0 1 0 0 0 0 1 0 0 0 0.9 0"/>
<feBlend mode="normal" in2="effect1_dropShadow_11_74" result="effect2_dropShadow_11_74"/>
<feBlend mode="normal" in="SourceGraphic" in2="effect2_dropShadow_11_74" result="shape"/>
</filter>
<linearGradient id="paint0_linear_11_74" x1="469.594" y1="111.274" x2="424.374" y2="-75.4735" gradientUnits="userSpaceOnUse">
<stop stop-color="white"/>
<stop offset="1" stop-color="#E9F0F7"/>
</linearGradient>
<linearGradient id="paint1_linear_11_74" x1="456.023" y1="114.328" x2="410.139" y2="-82.7454" gradientUnits="userSpaceOnUse">
<stop stop-color="#D6E5F2"/>
<stop offset="0.713542" stop-color="white" stop-opacity="0.3"/>
</linearGradient>
</defs>
</svg>
